<?xml version="1.0" encoding="utf-8"?>
<!-- Generator: Adobe Illustrator 21.1.0, SVG Export Plug-In . SVG Version: 6.00 Build 0)  -->
<svg version="1.1"
	 id="NexT" xmlns:cc="http://creativecommons.org/ns#" xmlns:dc="http://purl.org/dc/elements/1.1/" xmlns:rdf="http://www.w3.org/1999/02/22-rdf-syntax-ns#" xmlns:svg="http://www.w3.org/2000/svg"
	 xmlns="http://www.w3.org/2000/svg" xmlns:xlink="http://www.w3.org/1999/xlink" x="0px" y="0px" viewBox="0 0 512 512"
	 style="enable-background:new 0 0 512 512;" xml:space="preserve">
<style type="text/css">
	.st0{fill:#6F78ED;}
</style>
<path class="st0" d="M256.4,25.8l-200,115.5L56,371.5l199.6,114.7l200-115.5l0.4-230.2L256.4,25.8z M289,350.1h-48.4l0.3-54.8
	l3-38.4l-1.6-0.3l-25,65.3h-33l-25.5-65.3l-1.3,0.3l3.2,38.4v54.8h-48.1V159.9h48.1l40,93l40.3-93H289V350.1z M403.5,311.9
	c-0.2,53.5-91.2,53.5-91.1,0V236h29.2v75.9c0,18.4,32.6,18.4,32.7,0V236h29.2V311.9z"/>
</svg>
